<?xml version="1.0" encoding="UTF-8"?>
<svg id="Capa_1" data-name="Capa 1" xmlns="http://www.w3.org/2000/svg" viewBox="0 0 1080 1080">
  <path d="M1019.79,461.34c-36.94-57.08-94.53-159.57-177.4-286.17-11.61-14.14-25.91-25.82-42.07-34.38l-30.4,46.56,35.79,56.95s13.21,21.29-4.49,33.99c-17.7,12.7-30.27-6.93-30.27-6.93-10.09-13.55-19.63-27.5-28.6-41.82-6.08,9.27-11.01,16.74-15,22.77l72.98-111.66c-22.01-12.06-46.87-17.95-71.96-17.06l-40.92,65.55s-10.39,14.75-27.58,6.93c-17.32-7.82-11.29-23.09-11.29-23.09l26.55-49.26h-59.52c-50.79,74.65-77.22,135.32-134.68,213.31-43.35,37.58-89.02,45.54-137.63,41.82-9.49-2.31-16.03-8.85-17.32-17.32-1.8-11.16,5.77-21.29,18.09-23.99,17.13-.76,34.24-1.96,51.31-3.59,23.1-4.33,43.96-16.58,59-34.63,33.99-50.28,65.29-107.23,106.98-175.73l-59.9.13c-19.63,33.61-38.74,65.55-60.8,100.95-24.76,35.66-63.9,58.68-107.1,62.98-66.44,3.21-93.64,2.57-154.69,3.85-11.67,14.11-23.22,34.25-32.07,48.23,33.73,1.15,81.84-.77,123.14.26,10.26,3.59,16.8,13.47,15.14,23.09-1.37,8.63-7.88,15.55-16.42,17.44l-152.51,3.85s-31.17,46.95-31.55,48.23c65.03-.77,213.95-3.21,303.48-4.49,46.43,2.05,74.78-.51,103.9-18.34,16.03-10.77,27.58-25.27,46.56-57.98,26.94-45.28,36.68-62.6,69.01-112.88,0,0,13.98-11.67,29.37-2.69,7.42,4.33,9.47,10.98,9.61,16.71-.03-.14-.11-.12-.11.1v.64c0,.73,0,1.1.11.82-.18,5.44-1.91,9.7-1.91,9.7-33.99,56.18-59.77,105.18-94.92,154.31-54.64,59.39-134.68,52.85-184.84,53.62l-310.54,4.1c-11.73,17.89-17.8,38.9-17.44,60.29h504.74l111.12-170.01c21.92,40.11,45.89,69.99,67.82,114.34,6.54,17.19,8.98,30.91,8.47,48.87-.31,18.79-5.15,37.23-14.11,53.74-20.68,39.5-69.56,110.69-72.34,114.74-35.08-56.39-69.36-111.24-100.82-161.43h-.13s-504.61,0-504.61,0c-1.8,9.75,5.52,38.48,11.93,53.36,2.95,5.64,9.36,16.42,10.9,18.09,1.03,1.03,34.5,1.28,274.11,2.57,92.35.64,89.66.51,106.98,3.98,30.78,6.16,56.69,20.27,77.35,41.94,7.82,8.21,13.6,15.52,22.06,28.6,20.27,31.3,78.24,126.47,78.24,126.47,0,0,12.96,21.55-6.41,32.32-19.37,10.77-33.61-8.85-33.61-8.85l-61.06-99.28c-23.73-39.76-33.99-52.85-50.54-64.01-17.26-11.68-37.53-18.09-58.36-18.47-13.72-.64-321.96-.77-321.96-.77l30.78,48.74,122.5.64s21.29,3.72,19.88,21.55c-1.28,17.96-16.67,20.39-16.67,20.39,0,0-52.59.26-98,1.28l29.37,47.97c51.31,1.54,107.36-1.28,153.92,5.39,22.45,5,43.61,15.14,60.8,28.99,34.38,29.89,35.92,45.15,85.17,121.09h60.03c-28.73-47.07-60.03-97.1-86.71-140.33-3.71-6.07-7.56-12.06-11.54-17.96-13.69-19.9-34.09-34.2-57.46-40.28-24.76-5.13-43.23-3.59-66.7-7.44,0,0-11.29-.77-11.29-19.24s17.06-19.5,17.06-19.5c20.14-2.82,44,0,64.78,2.82,33.86,6.93,62.85,23.73,84.4,48.87,7.05,8.47,12.44,16.16,21.68,31.55,16.16,26.55,30.66,49.51,47.46,76.32,18.6,30.4,33.35,53.87,52.72,85.17h76.32l-31.3-51.56s-5.77-15.26,8.85-24.37c14.49-8.98,27.83.38,32.58,6.54l43.1,69.52c23.73-.51,47.46-6.41,68.37-17.06,0-.02-.02-.03-.03-.05,10.93-4.92,32-20.52,42.74-34.59,63.24-96.33,125.7-190.99,189.07-289.63,34.59-42.44,35.13-103.19,1.28-146.23ZM683.63,319.21l26.97-41.26c42.65,73.91,93.79,139.31,127.57,210.71,13.34,43.61,1.28,87.22-23.99,123.14-7.7,10.65-24.63,21.29-38.35,12.06-13.6-8.98-5.64-26.42,1.28-39.76,7.9-10.86,13.84-23.02,17.57-35.92,5.43-21.55,2.4-44.36-8.47-63.75-33.88-55.27-68.08-110.34-102.59-165.22ZM673.25,747.62c3.28-5.17,53.03-83.46,56.01-86.57,7.44-8.21,21.55-8.59,29.89-3.34,8.47,5.39,11.8,16.67,9.36,23.6-18.78,32.15-65.59,97.18-71.26,105.04-7.99-12.92-16-25.85-24-38.74ZM949.37,581.4c-29.7,52.62-135.56,211.05-193.36,300.29-8.59-14-17.27-28.11-26.01-42.28,5.36-7.49,109.46-153.09,149.07-220.68,16.29-28.86,31.68-59.52,34.12-83.89,2.69-52.59-44-98.38-87.61-173.93,0,0-16.67-27.19,2.57-39.25,19.5-12.06,33.99,15.01,33.99,15.01l84.66,134.68c17.96,38.61,19.37,64.13,2.57,110.05Z"/>
</svg>